<svg width="300" height="53" viewBox="0 0 300 53" fill="none" xmlns="http://www.w3.org/2000/svg">
<g clip-path="url(#clip0_584_514)">
<path fill-rule="evenodd" clip-rule="evenodd" d="M92.84 35.4303C91.3354 37.6384 89.3978 39.4145 86.9756 40.6522C84.6629 41.8884 82.1319 42.4821 79.3907 42.4821C74.9222 42.4821 71.0499 40.7586 68.0864 37.7976C65.1282 34.8378 63.4075 30.9667 63.4075 26.5014C63.4075 22.0312 65.1282 18.1589 68.0864 15.1996C71.0499 12.2416 74.9222 10.5182 79.3907 10.5182C82.0269 10.5182 84.5063 11.1608 86.654 12.2416C88.9104 13.4216 90.7977 15.04 92.3584 17.133L87.8929 20.3683C86.9254 19.0199 85.6837 17.9985 84.1787 17.19C82.6708 16.3839 81.0566 16.0045 79.3907 16.0045C76.5373 16.0045 73.9522 17.19 72.02 19.1264C70.0783 21.0623 68.8979 23.6469 68.8979 26.5014C68.8979 29.46 70.0783 31.9882 72.02 33.9272C73.9013 35.8079 76.4296 36.994 79.3907 36.994C81.2693 36.994 82.941 36.5626 84.4472 35.7565C86.0083 34.9487 87.3002 33.8176 88.325 32.3671L92.84 35.4303ZM88.325 32.3671L92.84 35.4303L88.325 32.3671Z" fill="#B5B5B5"/>
<path fill-rule="evenodd" clip-rule="evenodd" d="M104.678 11.4881V24.0256H114.038V11.4881H119.53V41.7806H114.038V29.5143H104.678V41.7806H99.1354V11.4881H104.678ZM99.1354 11.4881H104.678H99.1354Z" fill="#B5B5B5"/>
<path fill-rule="evenodd" clip-rule="evenodd" d="M144.981 34.8956H134.327L131.098 41.7809H125.069L136.965 16.5984L139.438 11.3802L141.968 16.5451L154.401 41.7809H148.372L144.981 34.8956ZM136.8 29.7287H142.397L139.548 23.8613L136.8 29.7287ZM139.548 23.8613L136.8 29.7287L139.548 23.8613Z" fill="#B5B5B5"/>
<path fill-rule="evenodd" clip-rule="evenodd" d="M178.665 41.7806H172.259L166.124 31.5057H165.313V41.7806H159.83V11.4881H165.313V11.5415H167.9C170.648 11.5415 173.118 12.5617 174.945 14.4461C176.78 16.3837 177.909 18.7493 177.909 21.4948C177.909 24.2417 176.836 26.7663 174.945 28.5454C174.039 29.4598 173.067 30.1073 171.992 30.589L178.665 41.7806ZM165.313 25.9633H167.9C169.136 25.9633 170.216 25.5349 171.076 24.6701C171.938 23.8078 172.37 22.7367 172.37 21.4948C172.37 20.3105 171.938 19.2359 171.076 18.3197C170.216 17.4604 169.136 17.0265 167.9 17.0265H165.313V25.9633Z" fill="#B5B5B5"/>
<path fill-rule="evenodd" clip-rule="evenodd" d="M183.02 11.4881H200.132V16.9733H194.211V41.7806H188.728V16.9733H183.02V11.4881ZM183.02 16.9733V11.4881V16.9733Z" fill="#B5B5B5"/>
<path fill-rule="evenodd" clip-rule="evenodd" d="M211.593 24.026H219.773V29.5146H211.593V36.2396H222.573V41.781H206.106V11.4327H222.573V16.9214H211.593V24.026ZM211.593 16.9214V24.026V16.9214Z" fill="#B5B5B5"/>
<path fill-rule="evenodd" clip-rule="evenodd" d="M247.696 41.7806H241.295L235.159 31.5057H234.352V41.7806H228.868V11.4881H234.352V11.5415H236.938C239.681 11.5415 242.158 12.5617 243.983 14.4461C245.816 16.3837 246.947 18.7493 246.947 21.4948C246.947 24.2417 245.864 26.7663 243.983 28.5454C243.069 29.4598 242.104 30.1073 241.024 30.589L247.696 41.7806ZM234.352 25.9633H236.938C238.173 25.9633 239.255 25.5349 240.113 24.6701C240.974 23.8078 241.4 22.7367 241.4 21.4948C241.4 20.3105 240.974 19.2359 240.113 18.3197C239.255 17.4604 238.173 17.0265 236.938 17.0265H234.352V25.9633Z" fill="#B5B5B5"/>
<path fill-rule="evenodd" clip-rule="evenodd" d="M258.62 24.026H266.802V29.5146H258.62V36.2396H269.595V41.781H253.128V11.4327H269.595V16.9214H258.62V24.026ZM258.62 16.9214V24.026V16.9214Z" fill="#B5B5B5"/>
<path fill-rule="evenodd" clip-rule="evenodd" d="M281.376 11.4881V11.5415H284.875C289.023 11.5415 292.839 13.2104 295.585 15.9511C298.325 18.6979 300 22.4117 300 26.661C300 30.8068 298.325 34.6265 295.585 37.3673C292.839 40.1128 289.023 41.7806 284.875 41.7806H279.711H275.89V11.4881H281.376ZM275.89 11.4881H281.376H275.89ZM281.376 17.0265V36.2924H284.875C287.513 36.2924 289.936 35.1658 291.655 33.4423C293.376 31.72 294.511 29.2983 294.511 26.661C294.511 24.0256 293.376 21.6026 291.655 19.8791C289.936 18.1018 287.513 17.0265 284.875 17.0265H281.376Z" fill="#B5B5B5"/>
<path fill-rule="evenodd" clip-rule="evenodd" d="M19.9738 30.1554C20.1373 29.2453 19.822 28.5543 19.0553 28.1175C18.4556 27.7881 17.6912 27.8317 17.1198 28.2408C16.47 28.7008 16.2267 29.3411 16.3929 30.1507C16.3339 30.1591 16.2816 30.1724 16.2237 30.1724C14.9486 30.1737 13.6715 30.1737 12.3975 30.1724C11.9191 30.1724 11.7203 29.9667 11.7203 29.4946C11.7203 28.5011 11.7229 27.5074 11.7145 26.5113C11.7132 26.3516 11.7477 26.2306 11.8963 26.1519C12.0414 26.072 12.0948 25.9485 12.1018 25.7804C12.1526 24.6051 12.2237 23.4299 12.255 22.2523C12.2656 21.9364 12.4758 21.7646 12.7742 21.7683C13.8522 21.7802 14.933 21.7898 16.0105 21.7888C20.9152 21.785 25.8238 21.7767 30.7304 21.7718C33.5625 21.7684 36.3954 21.7646 39.2286 21.7658C39.8653 21.7658 40.4841 22.222 40.6821 22.8199C40.7006 22.8828 40.7036 22.9543 40.7036 23.0221C40.6972 24.9125 40.6854 26.803 40.6886 28.6959C40.6886 28.9234 40.5955 29.0021 40.4007 29.0421C39.7135 29.1728 39.0336 29.3094 38.3471 29.4451C37.5001 29.6146 36.6526 29.7815 35.8049 29.9497C35.4276 30.0235 35.0503 30.0974 34.634 30.1784C34.7011 29.3446 34.4871 28.6353 33.7669 28.1742C33.4205 27.9527 33.026 27.868 32.6118 27.9177C31.4971 28.0519 30.7455 29.0154 30.9803 30.1554C27.3158 30.1554 23.6545 30.1554 19.9738 30.1554ZM25.1261 23.1213C24.449 23.1213 23.7722 23.12 23.094 23.1226C22.72 23.1226 22.5324 23.304 22.5299 23.6743C22.527 24.1755 22.527 24.6754 22.5299 25.1763C22.5325 25.5637 22.72 25.7488 23.1036 25.75C24.446 25.7513 25.7882 25.7513 27.1303 25.75C27.5138 25.7488 27.6838 25.5783 27.6868 25.1946C27.6931 24.6862 27.6931 24.1767 27.6868 23.6671C27.6838 23.2847 27.5168 23.1226 27.127 23.1226C26.459 23.12 25.7912 23.1213 25.1261 23.1213ZM19.0553 23.1213C18.3699 23.1213 17.6889 23.12 17.008 23.1226C16.6618 23.1247 16.47 23.2968 16.4641 23.6297C16.4546 24.1683 16.4546 24.7068 16.4641 25.2442C16.47 25.5673 16.6618 25.7476 16.9866 25.7476C18.3594 25.7514 19.7321 25.7514 21.1061 25.7476C21.4402 25.7476 21.6141 25.56 21.6153 25.2187C21.6153 24.7105 21.6153 24.2022 21.6153 23.6951C21.614 23.2872 21.4489 23.1226 21.0314 23.1226C20.3724 23.12 19.7144 23.1213 19.0553 23.1213ZM31.1534 23.1213C30.4778 23.1213 29.7987 23.12 29.1279 23.1226C28.7785 23.1247 28.5897 23.3102 28.5897 23.655C28.5833 24.1804 28.5833 24.7031 28.5897 25.2273C28.5935 25.554 28.7785 25.7453 29.0942 25.7476C30.4766 25.7514 31.8586 25.7514 33.2429 25.7476C33.5595 25.7455 33.73 25.5649 33.7344 25.2491C33.7344 24.7323 33.7344 24.2141 33.7344 23.6986C33.73 23.2787 33.5746 23.1226 33.1608 23.1226C32.4892 23.12 31.8217 23.1213 31.1534 23.1213ZM37.181 25.75C37.863 25.75 38.5482 25.7513 39.2315 25.7487C39.572 25.7475 39.7664 25.5539 39.7694 25.2089C39.7724 24.8689 39.7617 24.5263 39.7724 24.1838C39.7851 23.7506 39.5772 23.4517 39.202 23.2871C38.9776 23.1938 38.7209 23.1322 38.4768 23.1272C37.3854 23.1128 36.2876 23.1213 35.1968 23.1213C34.781 23.1225 34.5987 23.3064 34.595 23.718C34.592 24.1959 34.592 24.6753 34.595 25.1545C34.5988 25.5636 34.7843 25.7487 35.1987 25.75C35.8576 25.7512 36.5191 25.75 37.1808 25.75L37.181 25.75ZM13.3645 26.1893C13.3645 27.0317 13.3632 27.8752 13.3687 28.7177C13.3687 29.0748 13.5417 29.249 13.8939 29.2525C14.1816 29.2587 14.4713 29.2587 14.7569 29.2525C15.1432 29.2491 15.3106 29.0857 15.3106 28.6996C15.3151 27.0293 15.3151 25.3591 15.3106 23.6888C15.3106 23.3319 15.1402 23.1577 14.7846 23.1468C14.5033 23.1371 14.2248 23.1394 13.9433 23.143C13.5351 23.149 13.3687 23.3197 13.3647 23.73C13.3634 24.5517 13.3647 25.3712 13.3647 26.1892L13.3645 26.1893Z" fill="#C5C7C9"/>
<path fill-rule="evenodd" clip-rule="evenodd" d="M16.7391 29.7621C16.6989 28.932 17.4686 28.2976 18.2269 28.3244C18.9582 28.3484 19.6564 28.9634 19.6341 29.7997C19.609 30.6057 18.9775 31.2448 18.1739 31.2339C17.3854 31.223 16.6989 30.5875 16.7391 29.7621ZM18.8668 29.7851C18.8698 29.4062 18.5579 29.077 18.1899 29.0723C17.8187 29.071 17.4951 29.3906 17.4876 29.7645C17.4813 30.1434 17.7906 30.463 18.1685 30.4714C18.5482 30.4786 18.8668 30.1652 18.8668 29.7851Z" fill="#C5C7C9"/>
<path fill-rule="evenodd" clip-rule="evenodd" d="M32.7683 31.2001C32.0636 31.2375 31.2772 30.5841 31.3238 29.6921C31.3605 28.9199 32.0076 28.2725 32.7934 28.2978C33.6064 28.3245 34.2493 28.9393 34.2218 29.7973C34.1976 30.5925 33.5725 31.2061 32.7683 31.2001ZM33.4578 29.7454C33.4565 29.3628 33.1391 29.0482 32.7655 29.0554C32.391 29.0603 32.0824 29.381 32.0849 29.761C32.0849 30.135 32.407 30.4569 32.7836 30.4522C33.1516 30.4509 33.4578 30.1265 33.4578 29.7454Z" fill="#C5C7C9"/>
<path fill-rule="evenodd" clip-rule="evenodd" d="M13.5966 15.2619L7.0018 8.66699C-2.33393 18.7113 -2.33393 34.2878 7.0018 44.3331L13.5966 37.7383C7.88975 31.3454 7.88975 21.6535 13.5966 15.2619Z" fill="#B5B5B5"/>
<path fill-rule="evenodd" clip-rule="evenodd" d="M14.9693 39.1094L8.37573 45.7056C18.4198 55.0441 33.9955 55.0441 44.0416 45.7056L37.4464 39.1094C31.0542 44.8184 21.3652 44.8184 14.9693 39.1094Z" fill="#B5B5B5"/>
<path fill-rule="evenodd" clip-rule="evenodd" d="M38.8202 37.7383L45.4153 44.3331C54.7521 34.2878 54.7521 18.7113 45.4153 8.66699L38.8202 15.2619C44.527 21.6559 44.527 31.3454 38.8202 37.7383Z" fill="#C5C7C9"/>
<path fill-rule="evenodd" clip-rule="evenodd" d="M37.4464 13.8882L44.0416 7.29449C33.9955 -2.04421 18.4198 -2.04421 8.37573 7.29449L14.9693 13.8882C21.3652 8.18154 31.0542 8.18154 37.4464 13.8882Z" fill="#B5B5B5"/>
</g>
<defs>
<clipPath id="clip0_584_514">
<rect width="300" height="52.419" fill="white" transform="translate(0 0.290466)"/>
</clipPath>
</defs>
</svg>
