<svg width="38" height="56" viewBox="0 0 38 56" fill="none" xmlns="http://www.w3.org/2000/svg">
<path fill-rule="evenodd" clip-rule="evenodd" d="M18.7964 0.00157016C25.8051 0.0752957 32.6176 4.42353 35.5839 10.8063C39.8725 20.0376 35.4082 32.4439 25.0725 36.2588L24.8827 36.3278C25.0427 38.458 25.2388 40.5851 25.3612 42.7169C25.3753 43.3035 24.6851 43.76 24.1423 43.4824C19.1039 40.6886 14.1549 37.7365 9.17449 34.8408C1.7188 30.4408 -1.9361 20.5804 1.03174 12.3639C3.60272 5.24549 10.7619 0.0596078 18.569 0C18.6459 0.00156863 18.7212 0.00157016 18.7964 0.00157016ZM18.5894 3.95294C11.1761 4.00628 4.28037 10.342 3.89919 17.9467C3.62939 23.3271 6.50468 28.7184 11.2623 31.4824L20.98 37.0933L20.9345 36.3671C20.9768 34.5051 22.34 33.1074 24.1627 32.378C29.9917 30.011 33.9541 23.5984 33.311 17.2408C32.5941 10.1349 26.2255 4.02981 18.7698 3.95294C18.707 3.95294 18.649 3.95294 18.5894 3.95294Z" fill="white"/>
<path fill-rule="evenodd" clip-rule="evenodd" d="M24.2867 55.145C24.4859 54.7984 24.5408 54.3874 24.4373 53.9999C24.3338 53.6141 24.0812 53.2846 23.7346 53.0839C21.2514 51.6501 15.8726 48.5443 13.3895 47.1105C13.0428 46.9113 12.6318 46.8564 12.2444 46.9599C11.8569 47.0635 11.5291 47.316 11.3283 47.6627C11.1291 48.0093 11.0742 48.4203 11.1777 48.8078C11.2812 49.1937 11.5338 49.5231 11.8805 49.7239C14.3652 51.1576 19.7424 54.2635 22.2255 55.6972C22.5722 55.8964 22.9832 55.9513 23.3706 55.8478C23.7565 55.7443 24.0859 55.4917 24.2867 55.145Z" fill="white"/>
<path fill-rule="evenodd" clip-rule="evenodd" d="M24.2868 48.6164C24.486 48.2697 24.5409 47.8588 24.4374 47.4713C24.3338 47.0839 24.0813 46.756 23.7346 46.5552C20.6978 44.8015 13.1872 40.4658 10.1487 38.7121C9.80208 38.5129 9.3911 38.458 9.00365 38.5615C8.61777 38.665 8.28836 38.9176 8.08757 39.2642C7.88836 39.6109 7.83346 40.0219 7.93699 40.4093C8.04051 40.7952 8.29306 41.1246 8.63973 41.3254C11.6766 43.0791 19.1872 47.4148 22.2256 49.1686C22.5723 49.3678 22.9833 49.4227 23.3707 49.3191C23.7566 49.2156 24.086 48.9631 24.2868 48.6164Z" fill="white"/>
</svg>
